ISO-10303-21;
HEADER;
FILE_DESCRIPTION (( 'STEP AP214' ),
    '1' );
FILE_NAME ('cover.STEP',
    '2026-03-29T20:02:35',
    ( '' ),
    ( '' ),
    'SwSTEP 2.0',
    'SolidWorks 2024',
    '' );
FILE_SCHEMA (( 'AUTOMOTIVE_DESIGN' ));
ENDSEC;

DATA;
#1 = FACE_OUTER_BOUND ( 'NONE', #13, .T. ) ;
#2 = DIRECTION ( 'NONE',  ( -0.000000000000000000, 0.000000000000000000, 1.000000000000000000 ) ) ;
#3 = EDGE_CURVE ( 'NONE', #74, #44, #174, .T. ) ;
#4 = DIRECTION ( 'NONE',  ( -0.000000000000000000, 0.000000000000000000, 1.000000000000000000 ) ) ;
#5 = FACE_OUTER_BOUND ( 'NONE', #159, .T. ) ;
#6 = AXIS2_PLACEMENT_3D ( 'NONE', #148, #116, #85 ) ;
#7 = CARTESIAN_POINT ( 'NONE',  ( 8.572527594031471957E-17, -0.6999999999999999556, -53.88000000000000256 ) ) ;
#8 =( NAMED_UNIT ( * ) SI_UNIT ( $, .STERADIAN. ) SOLID_ANGLE_UNIT ( ) );
#9 = AXIS2_PLACEMENT_3D ( 'NONE', #178, #2, #153 ) ;
#10 = EDGE_CURVE ( 'NONE', #44, #12, #53, .T. ) ;
#11 = PRODUCT_DEFINITION_SHAPE ( 'NONE', 'NONE',  #54 ) ;
#12 = VERTEX_POINT ( 'NONE', #86 ) ;
#13 = EDGE_LOOP ( 'NONE', ( #69, #130, #182, #42 ) ) ;
#14 = SURFACE_STYLE_FILL_AREA ( #55 ) ;
#15 = VECTOR ( 'NONE', #184, 1000.000000000000000 ) ;
#16 = EDGE_LOOP ( 'NONE', ( #89, #156, #132, #158 ) ) ;
#17 = ADVANCED_FACE ( 'NONE', ( #133 ), #45, .T. ) ;
#18 =( NAMED_UNIT ( * ) SI_UNIT ( $, .STERADIAN. ) SOLID_ANGLE_UNIT ( ) );
#19 = VECTOR ( 'NONE', #72, 1000.000000000000000 ) ;
#20 = DIRECTION ( 'NONE',  ( 0.000000000000000000, 0.000000000000000000, 1.000000000000000000 ) ) ;
#21 = DIRECTION ( 'NONE',  ( 0.000000000000000000, 0.000000000000000000, 1.000000000000000000 ) ) ;
#22 = LINE ( 'NONE', #108, #87 ) ;
#23 = CLOSED_SHELL ( 'NONE', ( #17, #31, #157, #50, #83, #121 ) ) ;
#24 = ORIENTED_EDGE ( 'NONE', *, *, #114, .T. ) ;
#25 = ADVANCED_BREP_SHAPE_REPRESENTATION ( 'cover', ( #38, #139 ), #147 ) ;
#26 = CARTESIAN_POINT ( 'NONE',  ( 44.00000000000000000, 0.000000000000000000, -53.88000000000000256 ) ) ;
#27 = CARTESIAN_POINT ( 'NONE',  ( 8.572527594031471957E-17, -0.6999999999999999556, -53.88000000000000256 ) ) ;
#28 = ORIENTED_EDGE ( 'NONE', *, *, #10, .T. ) ;
#29 = VECTOR ( 'NONE', #137, 1000.000000000000000 ) ;
#30 = DIRECTION ( 'NONE',  ( 0.000000000000000000, 0.000000000000000000, 1.000000000000000000 ) ) ;
#31 = ADVANCED_FACE ( 'NONE', ( #187 ), #40, .T. ) ;
#32 = LINE ( 'NONE', #106, #124 ) ;
#33 =( LENGTH_UNIT ( ) NAMED_UNIT ( * ) SI_UNIT ( .MILLI., .METRE. ) );
#34 = CARTESIAN_POINT ( 'NONE',  ( 8.572527594031471957E-17, -0.6999999999999999556, -53.88000000000000256 ) ) ;
#35 = CARTESIAN_POINT ( 'NONE',  ( 44.00000000000000000, 0.000000000000000000, -53.88000000000000256 ) ) ;
#36 = APPLICATION_PROTOCOL_DEFINITION ( 'draft international standard', 'automotive_design', 1998, #68 ) ;
#37 = EDGE_CURVE ( 'NONE', #44, #52, #103, .T. ) ;
#38 = MANIFOLD_SOLID_BREP ( 'Boss-Extrude1', #23 ) ;
#39 = VECTOR ( 'NONE', #30, 1000.000000000000000 ) ;
#40 = PLANE ( 'NONE',  #113 ) ;
#41 = MECHANICAL_DESIGN_GEOMETRIC_PRESENTATION_REPRESENTATION (  '', ( #128 ), #62 ) ;
#42 = ORIENTED_EDGE ( 'NONE', *, *, #183, .T. ) ;
#43 = ORIENTED_EDGE ( 'NONE', *, *, #91, .T. ) ;
#44 = VERTEX_POINT ( 'NONE', #59 ) ;
#45 = PLANE ( 'NONE',  #6 ) ;
#46 = DIRECTION ( 'NONE',  ( -1.000000000000000000, -0.000000000000000000, -0.000000000000000000 ) ) ;
#47 = VECTOR ( 'NONE', #95, 1000.000000000000000 ) ;
#48 = DIRECTION ( 'NONE',  ( 1.000000000000000000, 0.000000000000000000, 0.000000000000000000 ) ) ;
#49 = LINE ( 'NONE', #166, #47 ) ;
#50 = ADVANCED_FACE ( 'NONE', ( #165 ), #131, .T. ) ;
#51 = PRODUCT_DEFINITION_FORMATION_WITH_SPECIFIED_SOURCE ( 'ANY', '', #67, .NOT_KNOWN. ) ;
#52 = VERTEX_POINT ( 'NONE', #150 ) ;
#53 = LINE ( 'NONE', #26, #19 ) ;
#54 = PRODUCT_DEFINITION ( 'UNKNOWN', '', #51, #180 ) ;
#55 = FILL_AREA_STYLE ('',( #99 ) ) ;
#56 = VERTEX_POINT ( 'NONE', #162 ) ;
#57 = CARTESIAN_POINT ( 'NONE',  ( 0.000000000000000000, 0.000000000000000000, -53.88000000000000256 ) ) ;
#58 = APPLICATION_CONTEXT ( 'automotive_design' ) ;
#59 = CARTESIAN_POINT ( 'NONE',  ( 44.00000000000000000, -0.6999999999999999556, -53.88000000000000256 ) ) ;
#60 = CARTESIAN_POINT ( 'NONE',  ( 0.000000000000000000, 0.000000000000000000, -53.88000000000000256 ) ) ;
#61 = PRESENTATION_STYLE_ASSIGNMENT (( #149 ) ) ;
#62 =( GEOMETRIC_REPRESENTATION_CONTEXT ( 3 ) GLOBAL_UNCERTAINTY_ASSIGNED_CONTEXT ( ( #64 ) ) GLOBAL_UNIT_ASSIGNED_CONTEXT ( ( #33, #176, #18 ) ) REPRESENTATION_CONTEXT ( 'NONE', 'WORKASPACE' ) );
#63 = DIRECTION ( 'NONE',  ( 1.000000000000000000, 0.000000000000000000, -0.000000000000000000 ) ) ;
#64 = UNCERTAINTY_MEASURE_WITH_UNIT (LENGTH_MEASURE( 1.000000000000000082E-05 ), #33, 'distance_accuracy_value', 'NONE');
#65 = PRODUCT_CONTEXT ( 'NONE', #58, 'mechanical' ) ;
#66 = VECTOR ( 'NONE', #75, 1000.000000000000000 ) ;
#67 = PRODUCT ( 'cover', 'cover', '', ( #65 ) ) ;
#68 = APPLICATION_CONTEXT ( 'automotive_design' ) ;
#69 = ORIENTED_EDGE ( 'NONE', *, *, #111, .T. ) ;
#70 = ORIENTED_EDGE ( 'NONE', *, *, #183, .F. ) ;
#71 = CARTESIAN_POINT ( 'NONE',  ( 44.00000000000000000, -0.6999999999999999556, -53.88000000000000256 ) ) ;
#72 = DIRECTION ( 'NONE',  ( -0.000000000000000000, 1.000000000000000000, -0.000000000000000000 ) ) ;
#73 = EDGE_CURVE ( 'NONE', #12, #100, #90, .T. ) ;
#74 = VERTEX_POINT ( 'NONE', #177 ) ;
#75 = DIRECTION ( 'NONE',  ( 0.000000000000000000, 0.000000000000000000, 1.000000000000000000 ) ) ;
#76 = CARTESIAN_POINT ( 'NONE',  ( 44.00000000000000000, 0.000000000000000000, -53.88000000000000256 ) ) ;
#77 = LINE ( 'NONE', #136, #29 ) ;
#78 = PLANE ( 'NONE',  #172 ) ;
#79 = DIRECTION ( 'NONE',  ( 0.000000000000000000, -0.000000000000000000, -1.000000000000000000 ) ) ;
#80 = VECTOR ( 'NONE', #134, 1000.000000000000000 ) ;
#81 = PRODUCT_RELATED_PRODUCT_CATEGORY ( 'part', '', ( #67 ) ) ;
#82 = AXIS2_PLACEMENT_3D ( 'NONE', #35, #63, #179 ) ;
#83 = ADVANCED_FACE ( 'NONE', ( #135 ), #123, .F. ) ;
#84 = VERTEX_POINT ( 'NONE', #60 ) ;
#85 = DIRECTION ( 'NONE',  ( 1.224646799147353207E-16, -1.000000000000000000, 0.000000000000000000 ) ) ;
#86 = CARTESIAN_POINT ( 'NONE',  ( 44.00000000000000000, 0.000000000000000000, -53.88000000000000256 ) ) ;
#87 = VECTOR ( 'NONE', #20, 1000.000000000000000 ) ;
#88 = ORIENTED_EDGE ( 'NONE', *, *, #143, .T. ) ;
#89 = ORIENTED_EDGE ( 'NONE', *, *, #154, .F. ) ;
#90 = LINE ( 'NONE', #76, #120 ) ;
#91 = EDGE_CURVE ( 'NONE', #12, #84, #164, .T. ) ;
#92 = CARTESIAN_POINT ( 'NONE',  ( 0.000000000000000000, 0.000000000000000000, 0.000000000000000000 ) ) ;
#93 = AXIS2_PLACEMENT_3D ( 'NONE', #7, #104, #79 ) ;
#94 = CARTESIAN_POINT ( 'NONE',  ( 0.000000000000000000, 0.000000000000000000, 0.000000000000000000 ) ) ;
#95 = DIRECTION ( 'NONE',  ( -0.000000000000000000, 1.000000000000000000, -0.000000000000000000 ) ) ;
#96 = LINE ( 'NONE', #141, #98 ) ;
#97 = SHAPE_DEFINITION_REPRESENTATION ( #11, #25 ) ;
#98 = VECTOR ( 'NONE', #126, 1000.000000000000000 ) ;
#99 = FILL_AREA_STYLE_COLOUR ( '', #127 ) ;
#100 = VERTEX_POINT ( 'NONE', #122 ) ;
#101 = ORIENTED_EDGE ( 'NONE', *, *, #37, .F. ) ;
#102 = SURFACE_SIDE_STYLE ('',( #14 ) ) ;
#103 = LINE ( 'NONE', #71, #39 ) ;
#104 = DIRECTION ( 'NONE',  ( 0.000000000000000000, -1.000000000000000000, 0.000000000000000000 ) ) ;
#105 = EDGE_CURVE ( 'NONE', #74, #56, #107, .T. ) ;
#106 = CARTESIAN_POINT ( 'NONE',  ( 0.000000000000000000, 0.000000000000000000, -53.88000000000000256 ) ) ;
#107 = LINE ( 'NONE', #34, #66 ) ;
#108 = CARTESIAN_POINT ( 'NONE',  ( 0.000000000000000000, 0.000000000000000000, -53.88000000000000256 ) ) ;
#109 = EDGE_CURVE ( 'NONE', #52, #100, #49, .T. ) ;
#110 = CARTESIAN_POINT ( 'NONE',  ( 0.000000000000000000, 0.000000000000000000, 0.000000000000000000 ) ) ;
#111 = EDGE_CURVE ( 'NONE', #171, #56, #125, .T. ) ;
#112 = DIRECTION ( 'NONE',  ( 1.000000000000000000, 0.000000000000000000, 0.000000000000000000 ) ) ;
#113 = AXIS2_PLACEMENT_3D ( 'NONE', #57, #145, #175 ) ;
#114 = EDGE_CURVE ( 'NONE', #84, #74, #32, .T. ) ;
#115 = ORIENTED_EDGE ( 'NONE', *, *, #111, .F. ) ;
#116 = DIRECTION ( 'NONE',  ( -1.000000000000000000, -1.224646799147353207E-16, 0.000000000000000000 ) ) ;
#117 = ORIENTED_EDGE ( 'NONE', *, *, #114, .F. ) ;
#118 = ORIENTED_EDGE ( 'NONE', *, *, #91, .F. ) ;
#119 = ORIENTED_EDGE ( 'NONE', *, *, #10, .F. ) ;
#120 = VECTOR ( 'NONE', #21, 1000.000000000000000 ) ;
#121 = ADVANCED_FACE ( 'NONE', ( #1 ), #78, .T. ) ;
#122 = CARTESIAN_POINT ( 'NONE',  ( 44.00000000000000000, 0.000000000000000000, 0.000000000000000000 ) ) ;
#123 = PLANE ( 'NONE',  #9 ) ;
#124 = VECTOR ( 'NONE', #163, 1000.000000000000000 ) ;
#125 = LINE ( 'NONE', #94, #80 ) ;
#126 = DIRECTION ( 'NONE',  ( -1.000000000000000000, -0.000000000000000000, -0.000000000000000000 ) ) ;
#127 = COLOUR_RGB ( '',1.000000000000000000, 1.000000000000000000, 1.000000000000000000 ) ;
#128 = STYLED_ITEM ( 'NONE', ( #61 ), #38 ) ;
#129 = ORIENTED_EDGE ( 'NONE', *, *, #73, .T. ) ;
#130 = ORIENTED_EDGE ( 'NONE', *, *, #154, .T. ) ;
#131 = PLANE ( 'NONE',  #93 ) ;
#132 = ORIENTED_EDGE ( 'NONE', *, *, #3, .T. ) ;
#133 = FACE_OUTER_BOUND ( 'NONE', #186, .T. ) ;
#134 = DIRECTION ( 'NONE',  ( 1.224646799147353207E-16, -1.000000000000000000, 0.000000000000000000 ) ) ;
#135 = FACE_OUTER_BOUND ( 'NONE', #146, .T. ) ;
#136 = CARTESIAN_POINT ( 'NONE',  ( 8.572527594031471957E-17, -0.6999999999999999556, 0.000000000000000000 ) ) ;
#137 = DIRECTION ( 'NONE',  ( 1.000000000000000000, 0.000000000000000000, 0.000000000000000000 ) ) ;
#138 = PLANE ( 'NONE',  #82 ) ;
#139 = AXIS2_PLACEMENT_3D ( 'NONE', #167, #181, #112 ) ;
#140 = UNCERTAINTY_MEASURE_WITH_UNIT (LENGTH_MEASURE( 1.000000000000000082E-05 ), #142, 'distance_accuracy_value', 'NONE');
#141 = CARTESIAN_POINT ( 'NONE',  ( 0.000000000000000000, 0.000000000000000000, 0.000000000000000000 ) ) ;
#142 =( LENGTH_UNIT ( ) NAMED_UNIT ( * ) SI_UNIT ( .MILLI., .METRE. ) );
#143 = EDGE_CURVE ( 'NONE', #84, #171, #22, .T. ) ;
#144 = ORIENTED_EDGE ( 'NONE', *, *, #3, .F. ) ;
#145 = DIRECTION ( 'NONE',  ( 0.000000000000000000, 1.000000000000000000, 0.000000000000000000 ) ) ;
#146 = EDGE_LOOP ( 'NONE', ( #117, #118, #119, #144 ) ) ;
#147 =( GEOMETRIC_REPRESENTATION_CONTEXT ( 3 ) GLOBAL_UNCERTAINTY_ASSIGNED_CONTEXT ( ( #140 ) ) GLOBAL_UNIT_ASSIGNED_CONTEXT ( ( #142, #155, #8 ) ) REPRESENTATION_CONTEXT ( 'NONE', 'WORKASPACE' ) );
#148 = CARTESIAN_POINT ( 'NONE',  ( 0.000000000000000000, 0.000000000000000000, -53.88000000000000256 ) ) ;
#149 = SURFACE_STYLE_USAGE ( .BOTH. , #102 ) ;
#150 = CARTESIAN_POINT ( 'NONE',  ( 44.00000000000000000, -0.6999999999999999556, 0.000000000000000000 ) ) ;
#151 = VECTOR ( 'NONE', #46, 1000.000000000000000 ) ;
#152 = CARTESIAN_POINT ( 'NONE',  ( 0.000000000000000000, 0.000000000000000000, -53.88000000000000256 ) ) ;
#153 = DIRECTION ( 'NONE',  ( 1.000000000000000000, 0.000000000000000000, 0.000000000000000000 ) ) ;
#154 = EDGE_CURVE ( 'NONE', #56, #52, #77, .T. ) ;
#155 =( NAMED_UNIT ( * ) PLANE_ANGLE_UNIT ( ) SI_UNIT ( $, .RADIAN. ) );
#156 = ORIENTED_EDGE ( 'NONE', *, *, #105, .F. ) ;
#157 = ADVANCED_FACE ( 'NONE', ( #5 ), #138, .T. ) ;
#158 = ORIENTED_EDGE ( 'NONE', *, *, #37, .T. ) ;
#159 = EDGE_LOOP ( 'NONE', ( #173, #101, #28, #129 ) ) ;
#160 = ORIENTED_EDGE ( 'NONE', *, *, #105, .T. ) ;
#161 = ORIENTED_EDGE ( 'NONE', *, *, #73, .F. ) ;
#162 = CARTESIAN_POINT ( 'NONE',  ( 8.572527594031471957E-17, -0.6999999999999999556, 0.000000000000000000 ) ) ;
#163 = DIRECTION ( 'NONE',  ( 1.224646799147353207E-16, -1.000000000000000000, 0.000000000000000000 ) ) ;
#164 = LINE ( 'NONE', #152, #151 ) ;
#165 = FACE_OUTER_BOUND ( 'NONE', #16, .T. ) ;
#166 = CARTESIAN_POINT ( 'NONE',  ( 44.00000000000000000, 0.000000000000000000, 0.000000000000000000 ) ) ;
#167 = CARTESIAN_POINT ( 'NONE',  ( 0.000000000000000000, 0.000000000000000000, 0.000000000000000000 ) ) ;
#168 = APPLICATION_PROTOCOL_DEFINITION ( 'draft international standard', 'automotive_design', 1998, #58 ) ;
#169 = PRESENTATION_LAYER_ASSIGNMENT (  '', '', ( #128 ) ) ;
#170 = ORIENTED_EDGE ( 'NONE', *, *, #143, .F. ) ;
#171 = VERTEX_POINT ( 'NONE', #110 ) ;
#172 = AXIS2_PLACEMENT_3D ( 'NONE', #92, #4, #48 ) ;
#173 = ORIENTED_EDGE ( 'NONE', *, *, #109, .F. ) ;
#174 = LINE ( 'NONE', #27, #15 ) ;
#175 = DIRECTION ( 'NONE',  ( 0.000000000000000000, -0.000000000000000000, 1.000000000000000000 ) ) ;
#176 =( NAMED_UNIT ( * ) PLANE_ANGLE_UNIT ( ) SI_UNIT ( $, .RADIAN. ) );
#177 = CARTESIAN_POINT ( 'NONE',  ( 8.572527594031471957E-17, -0.6999999999999999556, -53.88000000000000256 ) ) ;
#178 = CARTESIAN_POINT ( 'NONE',  ( 0.000000000000000000, 0.000000000000000000, -53.88000000000000256 ) ) ;
#179 = DIRECTION ( 'NONE',  ( -0.000000000000000000, 0.000000000000000000, -1.000000000000000000 ) ) ;
#180 = PRODUCT_DEFINITION_CONTEXT ( 'detailed design', #68, 'design' ) ;
#181 = DIRECTION ( 'NONE',  ( 0.000000000000000000, 0.000000000000000000, 1.000000000000000000 ) ) ;
#182 = ORIENTED_EDGE ( 'NONE', *, *, #109, .T. ) ;
#183 = EDGE_CURVE ( 'NONE', #100, #171, #96, .T. ) ;
#184 = DIRECTION ( 'NONE',  ( 1.000000000000000000, 0.000000000000000000, 0.000000000000000000 ) ) ;
#185 = EDGE_LOOP ( 'NONE', ( #70, #161, #43, #88 ) ) ;
#186 = EDGE_LOOP ( 'NONE', ( #115, #170, #24, #160 ) ) ;
#187 = FACE_OUTER_BOUND ( 'NONE', #185, .T. ) ;
ENDSEC;
END-ISO-10303-21;
